<mxfile host="app.diagrams.net" modified="2023-04-03T02:51:40.817Z" agent="Mozilla/5.0 (Windows NT 10.0; Win64; x64) AppleWebKit/537.36 (KHTML, like Gecko) Chrome/111.0.0.0 Safari/537.36 Edg/111.0.1661.62" etag="LX6Q_pzDUgZNSWRydfzG" version="21.1.2" type="github">
  <diagram name="페이지-1" id="LRBb98pDkhNu5rGQjlUK">
    <mxGraphModel dx="1356" dy="836" grid="1" gridSize="10" guides="1" tooltips="1" connect="1" arrows="1" fold="1" page="1" pageScale="1" pageWidth="827" pageHeight="1169" math="0" shadow="0">
      <root>
        <mxCell id="0" />
        <mxCell id="1" parent="0" />
        <mxCell id="5-H4kCdCL2yu6eZOMaOn-1" value="Server" style="rounded=0;whiteSpace=wrap;html=1;" vertex="1" parent="1">
          <mxGeometry x="620" y="130" width="120" height="60" as="geometry" />
        </mxCell>
        <mxCell id="5-H4kCdCL2yu6eZOMaOn-2" value="Clilent" style="rounded=0;whiteSpace=wrap;html=1;" vertex="1" parent="1">
          <mxGeometry x="170" y="90" width="120" height="60" as="geometry" />
        </mxCell>
        <mxCell id="5-H4kCdCL2yu6eZOMaOn-3" value="Clilent" style="rounded=0;whiteSpace=wrap;html=1;" vertex="1" parent="1">
          <mxGeometry x="170" y="180" width="120" height="60" as="geometry" />
        </mxCell>
        <mxCell id="5-H4kCdCL2yu6eZOMaOn-4" value="welcoming&lt;br&gt;소켓" style="ellipse;whiteSpace=wrap;html=1;aspect=fixed;" vertex="1" parent="1">
          <mxGeometry x="560" y="130" width="60" height="60" as="geometry" />
        </mxCell>
        <mxCell id="5-H4kCdCL2yu6eZOMaOn-5" value="통신소켓" style="ellipse;whiteSpace=wrap;html=1;" vertex="1" parent="1">
          <mxGeometry x="430" y="80" width="120" height="80" as="geometry" />
        </mxCell>
        <mxCell id="5-H4kCdCL2yu6eZOMaOn-6" value="통신소켓" style="ellipse;whiteSpace=wrap;html=1;" vertex="1" parent="1">
          <mxGeometry x="430" y="170" width="120" height="80" as="geometry" />
        </mxCell>
        <mxCell id="5-H4kCdCL2yu6eZOMaOn-12" value="" style="shape=link;html=1;rounded=0;" edge="1" parent="1" target="5-H4kCdCL2yu6eZOMaOn-5">
          <mxGeometry width="100" relative="1" as="geometry">
            <mxPoint x="290" y="119.5" as="sourcePoint" />
            <mxPoint x="390" y="119.5" as="targetPoint" />
          </mxGeometry>
        </mxCell>
        <mxCell id="5-H4kCdCL2yu6eZOMaOn-13" value="" style="shape=link;html=1;rounded=0;" edge="1" parent="1">
          <mxGeometry width="100" relative="1" as="geometry">
            <mxPoint x="290" y="209.5" as="sourcePoint" />
            <mxPoint x="430" y="210" as="targetPoint" />
          </mxGeometry>
        </mxCell>
        <mxCell id="5-H4kCdCL2yu6eZOMaOn-14" value="ChatServer" style="rounded=0;whiteSpace=wrap;html=1;" vertex="1" parent="1">
          <mxGeometry x="680" y="782.5" width="210" height="105" as="geometry" />
        </mxCell>
        <mxCell id="5-H4kCdCL2yu6eZOMaOn-15" value="serverSocket&lt;br&gt;(welcoming 소켓)" style="ellipse;whiteSpace=wrap;html=1;" vertex="1" parent="1">
          <mxGeometry x="580" y="807.5" width="100" height="55" as="geometry" />
        </mxCell>
        <mxCell id="5-H4kCdCL2yu6eZOMaOn-16" value="SocketClient" style="ellipse;whiteSpace=wrap;html=1;" vertex="1" parent="1">
          <mxGeometry x="420" y="700" width="120" height="80" as="geometry" />
        </mxCell>
        <mxCell id="5-H4kCdCL2yu6eZOMaOn-17" value="SocketClient" style="ellipse;whiteSpace=wrap;html=1;" vertex="1" parent="1">
          <mxGeometry x="420" y="795" width="120" height="80" as="geometry" />
        </mxCell>
        <mxCell id="5-H4kCdCL2yu6eZOMaOn-18" value="SocketClient" style="ellipse;whiteSpace=wrap;html=1;" vertex="1" parent="1">
          <mxGeometry x="420" y="905" width="120" height="80" as="geometry" />
        </mxCell>
        <mxCell id="5-H4kCdCL2yu6eZOMaOn-20" value="ChatClient" style="rounded=0;whiteSpace=wrap;html=1;" vertex="1" parent="1">
          <mxGeometry x="150" y="710" width="120" height="60" as="geometry" />
        </mxCell>
        <mxCell id="5-H4kCdCL2yu6eZOMaOn-21" value="ChatClient" style="rounded=0;whiteSpace=wrap;html=1;" vertex="1" parent="1">
          <mxGeometry x="150" y="805" width="120" height="60" as="geometry" />
        </mxCell>
        <mxCell id="5-H4kCdCL2yu6eZOMaOn-22" value="ChatClient" style="rounded=0;whiteSpace=wrap;html=1;" vertex="1" parent="1">
          <mxGeometry x="150" y="915" width="120" height="60" as="geometry" />
        </mxCell>
        <mxCell id="5-H4kCdCL2yu6eZOMaOn-23" value="" style="shape=link;html=1;rounded=0;entryX=0;entryY=0.5;entryDx=0;entryDy=0;" edge="1" parent="1" target="5-H4kCdCL2yu6eZOMaOn-16">
          <mxGeometry width="100" relative="1" as="geometry">
            <mxPoint x="270" y="739.5" as="sourcePoint" />
            <mxPoint x="410" y="740" as="targetPoint" />
          </mxGeometry>
        </mxCell>
        <mxCell id="5-H4kCdCL2yu6eZOMaOn-27" value="" style="shape=link;html=1;rounded=0;entryX=0;entryY=0.5;entryDx=0;entryDy=0;" edge="1" parent="1">
          <mxGeometry width="100" relative="1" as="geometry">
            <mxPoint x="270" y="944.5" as="sourcePoint" />
            <mxPoint x="420" y="945" as="targetPoint" />
          </mxGeometry>
        </mxCell>
        <mxCell id="5-H4kCdCL2yu6eZOMaOn-28" value="" style="shape=link;html=1;rounded=0;entryX=0;entryY=0.5;entryDx=0;entryDy=0;" edge="1" parent="1">
          <mxGeometry width="100" relative="1" as="geometry">
            <mxPoint x="270" y="835" as="sourcePoint" />
            <mxPoint x="420" y="835.5" as="targetPoint" />
          </mxGeometry>
        </mxCell>
        <mxCell id="5-H4kCdCL2yu6eZOMaOn-34" value="&lt;font style=&quot;font-size: 15px;&quot;&gt;TCP 모델&lt;/font&gt;" style="shape=hexagon;perimeter=hexagonPerimeter2;whiteSpace=wrap;html=1;fixedSize=1;" vertex="1" parent="1">
          <mxGeometry x="330" y="10" width="340" height="30" as="geometry" />
        </mxCell>
      </root>
    </mxGraphModel>
  </diagram>
</mxfile>
